custom-analysis
version=1
nRows=4
nColumns=98
inDegrees=no

This file contains tibia displacement and acting force.

Units are S.I. units (seconds, meters, Newtons, ...)
Angles are in degrees.

endheader
time	APT	SIT	knee_angle	aACL_R_force	pACL_R_force	aPCL_R_force	pPCL_R_force	aMCL_R_force	mMCL_R_force	pMCL_R_force	aLCL_R_force	mLCL_R_force	pLCL_R_force	aPCL_L_force	pPCL_L_force	aMCL_L_force	aLCL_L_force	aACL_R_length	pACL_R_length	aPCL_R_length	pPCL_R_length	aMCL_R_length	mMCL_R_length	pMCL_R_length	aLCL_R_length	mLCL_R_length	pLCL_R_length	aPCL_L_length	pPCL_L_length	aMCL_L_length	aLCL_L_length	aACL_R_strain	pACL_R_strain	aPCL_R_strain	pPCL_R_strain	aMCL_R_strain	mMCL_R_strain	pMCL_R_strain	aLCL_R_strain	mLCL_R_strain	pLCL_R_strain	aPCL_L_strain	pPCL_L_strain	aMCL_L_strain	aLCL_L_strain	femur_lat_meniscii_r.femur_lat_r.force.X	femur_lat_meniscii_r.femur_lat_r.force.Y	femur_lat_meniscii_r.femur_lat_r.force.Z	femur_lat_meniscii_r.femur_lat_r.torque.X	femur_lat_meniscii_r.femur_lat_r.torque.Y	femur_lat_meniscii_r.femur_lat_r.torque.Z	femur_lat_meniscii_r.meniscus_lat_r.force.X	femur_lat_meniscii_r.meniscus_lat_r.force.Y	femur_lat_meniscii_r.meniscus_lat_r.force.Z	femur_lat_meniscii_r.meniscus_lat_r.torque.X	femur_lat_meniscii_r.meniscus_lat_r.torque.Y	femur_lat_meniscii_r.meniscus_lat_r.torque.Z	femur_med_meniscii_r.femur_med_r.force.X	femur_med_meniscii_r.femur_med_r.force.Y	femur_med_meniscii_r.femur_med_r.force.Z	femur_med_meniscii_r.femur_med_r.torque.X	femur_med_meniscii_r.femur_med_r.torque.Y	femur_med_meniscii_r.femur_med_r.torque.Z	femur_med_meniscii_r.meniscus_med_r.force.X	femur_med_meniscii_r.meniscus_med_r.force.Y	femur_med_meniscii_r.meniscus_med_r.force.Z	femur_med_meniscii_r.meniscus_med_r.torque.X	femur_med_meniscii_r.meniscus_med_r.torque.Y	femur_med_meniscii_r.meniscus_med_r.torque.Z	femur_med_tibia_r.tibia_upper_r.force.X	femur_med_tibia_r.tibia_upper_r.force.Y	femur_med_tibia_r.tibia_upper_r.force.Z	femur_med_tibia_r.tibia_upper_r.torque.X	femur_med_tibia_r.tibia_upper_r.torque.Y	femur_med_tibia_r.tibia_upper_r.torque.Z	femur_med_tibia_r.femur_med_r.force.X	femur_med_tibia_r.femur_med_r.force.Y	femur_med_tibia_r.femur_med_r.force.Z	femur_med_tibia_r.femur_med_r.torque.X	femur_med_tibia_r.femur_med_r.torque.Y	femur_med_tibia_r.femur_med_r.torque.Z	femur_lat_tibia_r.tibia_upper_r.force.X	femur_lat_tibia_r.tibia_upper_r.force.Y	femur_lat_tibia_r.tibia_upper_r.force.Z	femur_lat_tibia_r.tibia_upper_r.torque.X	femur_lat_tibia_r.tibia_upper_r.torque.Y	femur_lat_tibia_r.tibia_upper_r.torque.Z	femur_lat_tibia_r.femur_lat_r.force.X	femur_lat_tibia_r.femur_lat_r.force.Y	femur_lat_tibia_r.femur_lat_r.force.Z	femur_lat_tibia_r.femur_lat_r.torque.X	femur_lat_tibia_r.femur_lat_r.torque.Y	femur_lat_tibia_r.femur_lat_r.torque.Z	femur_lat_meniscii_force_r	femur_med_meniscii_force_r	femur_lat_tibia_force_r	femur_med_tibia_force_r
      0.08001621	      0.00849673	      0.00442633	     16.46832655	     66.65297251	     46.76492301	      0.00000000	      0.00000000	      0.00000000	     -4.41906150	    -26.01168968	      0.00000000	      0.00000000	      0.00000000	      0.00000000	      0.00000000	      0.00000001	      0.00000000	      0.03373688	      0.02702793	      0.02799863	      0.02778828	      0.05662974	      0.05996716	      0.06065481	      0.05326518	      0.05095277	      0.04814269	      0.01525851	      0.01651186	      0.06550154	      0.04489616	      0.08809346	      0.07858468	     -0.09958631	     -0.07024664	     -0.05659549	      0.00290435	      0.03280911	     -0.04844868	     -0.09527638	     -0.08024062	      0.00000079	     -0.32847694	      0.00000060	     -0.00000086	     62.13577873	    301.71283732	     24.05099407	    -17.12599316	      1.50307550	     25.73821196	    -62.13577873	   -301.71283732	    -24.05099407	      8.92538437	     -1.91658200	      0.63539367	     36.96388656	    155.39964047	      3.20619630	      1.91216374	     -0.71509013	     14.78910830	    -36.96388656	   -155.39964047	     -3.20619630	     -2.61783839	      0.56346640	      0.69551763	    -19.78926093	   -534.27701246	     60.04089437	    -11.11956942	      0.69743506	      2.93045547	     19.78926093	    534.27701246	    -60.04089437	     35.92343813	     -0.25364839	      9.19386837	      3.56630274	   -289.28372510	    -58.90670827	      9.64128204	     -0.28016367	      1.97834020	     -3.56630274	    289.28372510	     58.90670827	    -31.23957977	     -0.20856627	     -0.88584073	    308.98210549	    159.76750878	    295.24192183	    538.00413557
      0.08099274	      0.00863630	      0.00451282	     16.81671857	     67.09492119	     46.29288705	      0.00000000	      0.00000000	      0.00000000	     -4.44952125	    -26.64877104	      0.00000000	      0.00000000	      0.00000000	      0.00000000	      0.00000000	      0.00000001	      0.00000000	      0.03375742	      0.02702841	      0.02802268	      0.02779076	      0.05666300	      0.05996114	      0.06060887	      0.05324740	      0.05091336	      0.04807939	      0.01525851	      0.01651186	      0.06550154	      0.04489616	      0.08875580	      0.07860370	     -0.09881305	     -0.07016360	     -0.05604142	      0.00280369	      0.03202674	     -0.04876627	     -0.09597615	     -0.08145001	      0.00000079	     -0.32847694	      0.00000060	     -0.00000086	     60.94862368	    304.03800382	     24.83515807	    -17.50509701	      1.47329939	     25.21588553	    -60.94862368	   -304.03800382	    -24.83515807	      9.00883889	     -1.89319380	      0.77545693	     36.08241458	    155.99883567	      3.27361114	      1.88386821	     -0.68969272	     14.39231998	    -36.08241458	   -155.99883567	     -3.27361114	     -2.61476292	      0.54021600	      0.78683159	    -20.33787430	   -529.39023598	     58.48682421	    -10.96483101	      0.71417217	      3.04031974	     20.33787430	    529.39023598	    -58.48682421	     35.15300054	     -0.27526276	      9.34350030	      3.85734181	   -283.45349522	    -57.86635581	      9.45211042	     -0.28167688	      2.02919177	     -3.85734181	    283.45349522	     57.86635581	    -30.67467788	     -0.20715968	     -1.04935238	    311.07977686	    160.15084734	    289.32555741	    532.99939934
      0.08190350	      0.00876630	      0.00459540	     17.14434433	     67.30894339	     45.64897587	      0.00000000	      0.00000000	      0.00000000	     -4.83011760	    -27.58703921	      0.00000000	      0.00000000	      0.00000000	      0.00000000	      0.00000000	      0.00000001	      0.00000000	      0.03377547	      0.02702764	      0.02804524	      0.02779309	      0.05669400	      0.05995526	      0.06056548	      0.05322961	      0.05087522	      0.04801881	      0.01525851	      0.01651186	      0.06550154	      0.04489616	      0.08933811	      0.07857325	     -0.09808746	     -0.07008565	     -0.05552493	      0.00270533	      0.03128804	     -0.04908407	     -0.09665341	     -0.08260723	      0.00000079	     -0.32847694	      0.00000060	     -0.00000086	     61.61288756	    307.64612889	     25.73899059	    -17.97233730	      1.49455297	     25.48059084	    -61.61288756	   -307.64612889	    -25.73899059	      9.13898625	     -1.92813227	      0.84667537	     34.24393546	    156.96030344	      3.31502884	      1.87246711	     -0.64589487	     13.59936402	    -34.24393546	   -156.96030344	     -3.31502884	     -2.61733237	      0.50197754	      0.90923536	    -19.56009956	   -527.01242015	     57.81722840	    -10.88941732	      0.71350656	      3.20923993	     19.56009956	    527.01242015	    -57.81722840	     34.80951095	     -0.26837654	      8.94057214	      4.22200804	   -279.43818070	    -56.79660725	      9.30698837	     -0.28021893	      2.08742472	     -4.22200804	    279.43818070	     56.79660725	    -30.13616870	     -0.20724580	     -1.23745683	    314.80912339	    160.68656879	    285.18305837	    530.53512644
      0.08281426	      0.00889542	      0.00467949	     17.47447035	     67.75571327	     45.22247828	      0.00000000	      0.00000000	      0.00000000	     -4.50656239	    -27.80659337	      0.00000000	      0.00000000	      0.00000000	      0.00000000	      0.00000000	      0.00000001	      0.00000000	      0.03379248	      0.02702578	      0.02806842	      0.02779592	      0.05672518	      0.05994934	      0.06052180	      0.05321102	      0.05083610	      0.04795713	      0.01525851	      0.01651186	      0.06550154	      0.04489616	      0.08988666	      0.07849878	     -0.09734205	     -0.06999101	     -0.05500565	      0.00260638	      0.03054421	     -0.04941611	     -0.09734801	     -0.08378569	      0.00000079	     -0.32847694	      0.00000060	     -0.00000086	     61.96432161	    311.00711210	     27.17116561	    -18.66487483	      1.51349198	     25.61682929	    -61.96432161	   -311.00711210	    -27.17116561	      9.29110838	     -1.96475091	      0.92541864	     34.03332326	    159.27010070	      3.47933662	      1.84389307	     -0.63291120	     13.48180321	    -34.03332326	   -159.27010070	     -3.47933662	     -2.64530243	      0.48796141	      0.99244755	    -18.33601363	   -523.90565130	     56.39060414	    -10.76948784	      0.70034019	      3.38941170	     18.33601363	    523.90565130	    -56.39060414	     34.12913019	     -0.25454475	      8.34795977	      4.29716731	   -275.82162783	    -56.43120498	      9.19926735	     -0.29061145	      2.13429302	     -4.29716731	    275.82162783	     56.43120498	    -29.90351757	     -0.20243636	     -1.30100185	    318.28175124	    162.90284789	    281.56796146	    527.25064352
